<?xml version="1.0" standalone="no"?>
<!DOCTYPE svg PUBLIC "-//W3C//DTD SVG 20010904//EN"
 "http://www.w3.org/TR/2001/REC-SVG-20010904/DTD/svg10.dtd">
<svg version="1.0" xmlns="http://www.w3.org/2000/svg"
 width="340.000000pt" height="340.000000pt" viewBox="0 0 340.000000 340.000000"
 preserveAspectRatio="xMidYMid meet">
<metadata>
Created by potrace 1.14, written by Peter Selinger 2001-2017
</metadata>
<g transform="translate(0.000000,340.000000) scale(0.100000,-0.100000)"
fill="#000000" stroke="none">
<path d="M1696 3393 c-2 -3 -19 -5 -37 -5 -19 0 -40 -6 -48 -12 -8 -6 -16 -9
-18 -7 -7 7 -73 -10 -73 -19 0 -6 -6 -10 -13 -10 -8 0 -14 -7 -14 -15 0 -19
16 -19 37 0 10 9 34 16 54 17 20 1 36 4 36 8 0 4 12 7 28 8 93 1 143 6 148 14
3 5 11 5 18 -2 7 -5 33 -11 57 -11 24 -1 49 -5 54 -9 6 -3 47 -15 92 -25 45
-11 79 -24 76 -29 -4 -5 1 -7 10 -3 11 4 25 -3 41 -19 24 -26 57 -49 89 -60 9
-3 17 -10 17 -16 0 -5 16 -18 35 -29 19 -12 32 -25 29 -30 -3 -5 2 -6 10 -3
14 5 12 10 -7 34 -12 16 -27 27 -34 25 -7 -2 -15 1 -19 7 -5 7 -2 8 6 3 9 -5
11 -4 6 4 -4 6 -11 9 -16 6 -5 -3 -11 4 -15 15 -4 11 -15 20 -26 20 -11 0 -22
6 -25 14 -3 8 -20 20 -37 27 -18 6 -49 23 -69 36 -35 24 -63 33 -158 54 -45
10 -227 19 -234 12z"/>
<path d="M1398 3302 c-34 -24 -48 -39 -41 -46 3 -3 0 -12 -7 -21 -19 -23 2
-18 30 8 14 12 37 28 52 36 15 8 29 19 31 25 7 17 -39 16 -65 -2z"/>
<path d="M1268 3199 c-44 -45 -44 -46 -21 -46 20 0 42 20 68 60 27 42 -3 34
-47 -14z"/>
<path d="M1214 3138 c-3 -5 -9 -6 -13 -4 -4 3 -14 -6 -22 -20 -11 -21 -11 -27
1 -34 19 -12 33 -2 25 18 -3 9 -3 14 0 10 7 -6 45 21 45 33 0 9 -30 7 -36 -3z"/>
<path d="M2340 3116 c0 -7 10 -21 22 -32 20 -18 21 -18 15 -1 -4 10 -7 22 -7
27 0 4 -7 10 -15 14 -9 3 -15 0 -15 -8z"/>
<path d="M1144 3038 c-52 -41 -59 -49 -44 -58 9 -6 8 -10 -6 -18 -14 -8 -16
-13 -6 -24 6 -8 8 -19 4 -23 -4 -5 -2 -5 5 -1 7 4 9 14 6 24 -3 9 -3 14 2 10
11 -11 35 39 28 58 -4 10 2 17 15 21 11 3 23 11 26 19 7 19 4 18 -30 -8z"/>
<path d="M1046 2892 c-5 -8 -10 -35 -12 -60 -2 -26 -6 -58 -10 -72 -15 -61
-16 -92 -3 -101 11 -6 11 -13 3 -26 -7 -11 -8 -33 -2 -61 5 -27 4 -51 -3 -63
-7 -15 -6 -21 5 -25 10 -4 14 -21 14 -56 1 -57 4 -63 27 -51 15 9 15 11 1 26
-9 8 -16 29 -16 46 0 16 -5 33 -10 36 -7 4 -8 11 -2 18 6 7 7 55 4 110 -3 67
-8 94 -14 85 -7 -9 -8 -8 -4 5 3 10 6 24 6 30 0 7 4 6 9 -2 14 -22 26 75 13
104 -8 17 -8 25 0 27 6 2 9 13 6 23 -3 15 -5 17 -12 7z"/>
<path d="M2163 2889 c-37 -11 -83 -61 -84 -92 -4 -84 13 -109 106 -153 109
-51 130 -93 79 -153 -22 -26 -33 -31 -70 -31 -38 0 -51 6 -81 35 -40 39 -56
40 -61 7 -4 -29 60 -88 104 -97 92 -17 184 54 184 142 0 55 -40 102 -118 139
-31 14 -65 33 -74 42 -24 21 -23 67 3 93 17 17 29 20 62 15 82 -12 91 -12 95
6 7 36 -84 66 -145 47z"/>
<path d="M1075 2879 c-4 -6 -5 -12 -2 -15 2 -3 7 2 10 11 7 17 1 20 -8 4z"/>
<path d="M1060 2349 c0 -18 2 -19 15 -5 8 8 15 17 15 20 0 3 -7 6 -15 6 -9 0
-15 -9 -15 -21z"/>
<path d="M1088 2335 c-4 -4 -4 -13 -1 -21 3 -8 0 -14 -6 -14 -9 0 -9 -5 0 -21
10 -20 12 -20 27 -5 12 12 14 19 6 24 -7 4 -13 15 -15 25 -2 11 -7 16 -11 12z"/>
<path d="M1110 2250 c-11 -7 -12 -12 -4 -20 8 -8 14 -7 23 4 14 17 1 28 -19
16z"/>
<path d="M1132 2221 c4 -13 18 -16 19 -4 0 4 -5 9 -11 12 -7 2 -11 -2 -8 -8z"/>
<path d="M1160 2188 c0 -9 7 -19 16 -22 15 -6 15 -4 3 11 -7 10 -15 20 -16 22
-2 2 -3 -3 -3 -11z"/>
<path d="M2288 2086 c-43 -40 -105 -89 -138 -109 -61 -36 -182 -80 -253 -93
-20 -3 -40 -10 -43 -15 -7 -12 -8 -12 77 6 101 22 153 40 235 85 101 56 255
201 212 200 -7 -1 -48 -34 -90 -74z"/>
<path d="M1184 2135 c11 -8 24 -15 30 -15 5 0 1 7 -10 15 -10 8 -23 14 -29 14
-5 0 -1 -6 9 -14z"/>
<path d="M1253 2087 c0 -8 6 -14 14 -14 9 0 10 4 2 14 -6 7 -12 13 -14 13 -1
0 -2 -6 -2 -13z"/>
<path d="M1450 1922 c0 -4 9 -8 19 -8 11 0 17 4 15 8 -3 4 -12 8 -20 8 -8 0
-14 -4 -14 -8z"/>
<path d="M1808 1863 c7 -3 16 -2 19 1 4 3 -2 6 -13 5 -11 0 -14 -3 -6 -6z"/>
<path d="M655 1436 c-62 -28 -105 -92 -105 -153 1 -42 34 -107 67 -131 16 -12
55 -30 85 -42 30 -11 73 -36 96 -56 36 -30 42 -41 42 -73 0 -95 -121 -154
-208 -101 -18 11 -38 31 -44 45 -13 30 -53 34 -67 7 -24 -45 64 -133 148 -147
111 -19 221 58 246 172 16 77 -47 155 -176 216 -88 42 -111 64 -112 111 -2 79
102 119 180 69 29 -19 66 -1 61 29 -8 54 -141 88 -213 54z"/>
<path d="M1399 1434 c-14 -17 -41 -82 -176 -422 -59 -150 -74 -198 -66 -210
26 -42 66 -3 102 98 l10 30 154 0 155 0 22 -61 c33 -87 66 -113 90 -70 11 21
-2 61 -56 179 -13 29 -24 55 -24 58 0 12 -152 390 -162 401 -14 18 -33 16 -49
-3z m90 -284 c28 -74 51 -139 51 -143 0 -8 -224 -10 -232 -1 -4 3 16 60 43
127 70 174 69 171 78 161 5 -5 31 -70 60 -144z"/>
<path d="M1962 1438 c-9 -9 -12 -96 -12 -329 0 -285 2 -318 16 -323 40 -15 65
14 62 69 -1 11 -1 114 0 229 l2 209 100 -134 c69 -92 108 -135 123 -137 18 -2
41 22 122 132 55 75 103 135 108 136 4 0 7 -112 7 -249 0 -243 1 -250 20 -256
48 -15 50 -5 50 329 0 414 0 413 -175 179 -65 -87 -121 -162 -125 -166 -4 -5
-62 66 -129 157 -120 163 -141 182 -169 154z"/>
<path d="M2827 1443 c-4 -3 -7 -152 -7 -329 0 -316 0 -323 20 -329 48 -15 50
-5 50 329 0 229 -3 315 -12 324 -13 13 -41 16 -51 5z"/>
<path d="M733 493 c-7 -2 -13 -16 -13 -29 0 -20 9 -29 45 -44 48 -21 54 -30
30 -50 -14 -12 -29 -11 -70 6 -18 7 -18 6 -6 -9 13 -17 55 -22 85 -11 9 4 16
18 16 34 0 24 -6 30 -37 40 -21 7 -42 17 -48 22 -14 13 25 40 45 32 47 -19 46
-19 31 -1 -13 16 -52 21 -78 10z"/>
<path d="M902 432 c-25 -79 -27 -99 -6 -59 20 36 61 38 70 2 3 -14 10 -25 16
-25 10 0 6 16 -24 98 -11 28 -23 52 -27 52 -4 0 -17 -31 -29 -68z m48 -4 c0
-5 -7 -8 -15 -8 -15 0 -20 21 -8 33 7 7 23 -11 23 -25z"/>
<path d="M1042 439 c-1 -39 3 -70 10 -77 19 -19 66 -15 78 7 13 25 13 131 0
131 -6 0 -10 -28 -10 -64 0 -66 -11 -83 -45 -70 -17 7 -23 28 -28 94 -3 34 -4
30 -5 -21z"/>
<path d="M1190 425 l0 -75 39 0 c47 0 71 26 71 77 0 44 -30 73 -75 73 l-35 0
0 -75z m57 59 c30 -8 48 -55 32 -86 -14 -28 -28 -38 -51 -38 -15 0 -18 10 -18
65 0 36 3 65 8 65 4 0 17 -3 29 -6z"/>
<path d="M1360 425 l0 -75 48 2 47 1 -42 4 c-40 4 -43 6 -43 34 0 27 2 29 40
29 22 0 40 5 40 10 0 6 -18 10 -41 10 -36 0 -40 2 -37 23 2 17 11 23 43 28
l40 6 -47 2 -48 1 0 -75z"/>
<path d="M983 175 c0 -44 2 -61 4 -37 2 23 2 59 0 80 -2 20 -4 1 -4 -43z"/>
<path d="M1062 173 l1 -78 6 60 6 60 30 -57 c42 -80 55 -76 55 17 0 88 -18
102 -22 18 l-3 -58 -27 52 c-41 77 -48 75 -46 -14z"/>
<path d="M1230 241 c23 -6 25 -13 30 -76 l6 -70 4 70 c5 64 7 70 30 76 17 5 5
7 -35 7 -40 0 -51 -2 -35 -7z"/>
<path d="M1380 175 l0 -75 48 2 47 1 -42 4 c-40 4 -43 6 -43 34 0 27 2 29 40
29 22 0 40 5 40 10 0 6 -18 10 -41 10 -36 0 -40 2 -37 23 2 17 11 23 43 28
l40 6 -47 2 -48 1 0 -75z"/>
<path d="M1520 175 l0 -75 53 2 c50 1 50 2 10 5 l-43 4 0 70 c0 39 -4 69 -10
69 -6 0 -10 -32 -10 -75z"/>
<path d="M1683 175 c0 -44 2 -61 4 -37 2 23 2 59 0 80 -2 20 -4 1 -4 -43z"/>
<path d="M1765 230 c-51 -57 11 -162 71 -122 13 8 34 46 34 61 0 14 -67 14
-76 0 -4 -8 3 -9 25 -4 37 8 43 -11 11 -40 -18 -17 -21 -17 -45 -1 -33 22 -35
78 -3 100 20 14 24 14 46 0 29 -19 39 -13 17 10 -22 22 -58 20 -80 -4z"/>
<path d="M1930 175 l0 -75 48 2 47 1 -42 4 c-40 4 -43 6 -43 34 0 27 2 29 40
29 22 0 40 5 40 10 0 6 -18 10 -41 10 -36 0 -40 2 -37 23 2 17 11 23 43 28
l40 6 -47 2 -48 1 0 -75z"/>
<path d="M2070 175 c0 -85 17 -103 22 -23 l3 52 28 -52 c16 -29 32 -52 38 -52
5 0 8 35 7 78 -2 69 -2 71 -5 20 -2 -32 -7 -58 -11 -58 -4 0 -20 25 -35 55
-15 30 -31 55 -37 55 -6 0 -10 -31 -10 -75z"/>
<path d="M2248 243 c20 -4 22 -10 22 -74 0 -39 4 -69 10 -69 6 0 10 30 10 69
0 68 1 70 28 74 15 2 0 4 -33 4 -33 0 -50 -2 -37 -4z"/>
<path d="M2390 175 l0 -75 53 2 c50 1 50 2 10 5 -40 4 -43 6 -43 34 0 27 2 29
40 29 22 0 40 5 40 10 0 6 -18 10 -40 10 -36 0 -40 3 -40 24 0 22 5 25 43 29
40 3 40 4 -10 5 l-53 2 0 -75z"/>
</g>
</svg>
